<svg width="32" height="32" viewBox="0 0 32 32" fill="none" xmlns="http://www.w3.org/2000/svg">
  <!-- 背景圆形 -->
  <circle cx="16" cy="16" r="15" fill="#3B82F6" stroke="#2563EB" stroke-width="2"/>
  
  <!-- 对话气泡 -->
  <path d="M8 12C8 10.3431 9.34315 9 11 9H21C22.6569 9 24 10.3431 24 12V18C24 19.6569 22.6569 21 21 21H13L9 24V12Z" fill="white"/>
  
  <!-- 对话气泡边框 -->
  <path d="M8 12C8 10.3431 9.34315 9 11 9H21C22.6569 9 24 10.3431 24 12V18C24 19.6569 22.6569 21 21 21H13L9 24V12Z" stroke="#E5E7EB" stroke-width="1"/>
  
  <!-- 三个点表示对话 -->
  <circle cx="13" cy="15" r="1.5" fill="#6B7280"/>
  <circle cx="16" cy="15" r="1.5" fill="#6B7280"/>
  <circle cx="19" cy="15" r="1.5" fill="#6B7280"/>
</svg>